<?xml version="1.0" standalone="no"?>
<!DOCTYPE svg PUBLIC "-//W3C//DTD SVG 20010904//EN"
 "http://www.w3.org/TR/2001/REC-SVG-20010904/DTD/svg10.dtd">
<svg version="1.0" xmlns="http://www.w3.org/2000/svg"
 width="1394.000000pt" height="1394.000000pt" viewBox="0 0 1394.000000 1394.000000"
 preserveAspectRatio="xMidYMid meet">
<metadata>
Created by potrace 1.11, written by Peter Selinger 2001-2013
</metadata>
<g transform="translate(0.000000,1394.000000) scale(0.100000,-0.100000)"
fill="#000000" stroke="none">
<path d="M6710 13744 c-474 -26 -863 -79 -1269 -174 -2533 -590 -4523 -2612
-5075 -5155 -100 -461 -145 -865 -151 -1365 -4 -344 3 -501 36 -805 197 -1866
1164 -3565 2674 -4699 946 -711 2076 -1166 3240 -1305 314 -37 464 -45 835
-45 559 1 956 44 1479 160 2005 448 3713 1803 4612 3658 394 815 611 1652 669
2581 12 200 4 739 -15 945 -66 739 -223 1379 -500 2045 -550 1321 -1533 2458
-2765 3197 -908 545 -1887 857 -2975 948 -124 11 -680 20 -795 14z"/>
</g>
</svg>
